<svg width="400" height="400" xmlns="http://www.w3.org/2000/svg">

 <g>
  <title>Layer 1</title>
  <path id="svg_9" d="m50.30303,180c0,0 23.0303,-105.45455 22.42424,-106.06061c0.60606,0.60606 250.90909,-15.15152 250.90909,-13.93939c0,1.21212 21.21212,106.06061 21.21212,106.06061c0,0 -36.36364,140.60606 -36.9697,140.60606c0.60606,0 -173.93939,6.66667 -174.54545,6.66667c-0.60606,0 -83.0303,-133.33333 -83.0303,-133.33333z" opacity="NaN" stroke="#000" fill="#fff"/>
  <path id="svg_10" d="m93.33333,134.54545c25.45455,-29.09091 43.63636,-25.45455 63.0303,-4.24242" opacity="NaN" stroke="#000" fill="#fff"/>
  <path id="svg_11" d="m203.63636,132.12121c20.60606,-27.87879 43.63636,-30.30303 59.39394,-9.69697" opacity="NaN" stroke="#000" fill="#fff"/>
  <path id="svg_12" d="m118.18182,203.63636c50.30303,50.90909 101.21212,53.33333 141.81818,15.15152" opacity="NaN" stroke="#000" fill="#fff"/>
  <path id="svg_13" d="m189.09091,189.69697c-11.04972,0 -20,-5.2888 -20,-11.81818c0,-6.52938 8.95028,-11.81818 20,-11.81818c11.04972,0 20,5.2888 20,11.81818c0,6.52938 -8.95028,11.81818 -20,11.81818z" opacity="undefined" stroke="#000" fill="#f7f742"/>
 </g>
</svg>